<svg width="192" height="61" viewBox="0 0 192 61" fill="none" xmlns="http://www.w3.org/2000/svg">
<g clip-path="url(#clip0_1_1519)">
<path fill-rule="evenodd" clip-rule="evenodd" d="M1.98674 17.8183L38.9175 1.89408C39.3201 1.71201 39.7565 1.60913 40.201 1.59148C40.6456 1.57383 41.0893 1.64178 41.5061 1.79132C41.9229 1.94087 42.3045 2.169 42.6283 2.46231C42.9522 2.75563 43.2118 3.10821 43.392 3.49935L59.8205 39.3128C60.0046 39.6982 60.1074 40.1149 60.1231 40.5388C60.1387 40.9627 60.0669 41.3854 59.9116 41.7825C59.7564 42.1795 59.5208 42.543 59.2186 42.852C58.9164 43.161 58.5535 43.4094 58.1509 43.5828L21.1867 59.5551C20.7841 59.7372 20.3478 59.8401 19.9032 59.8577C19.4587 59.8754 19.015 59.8074 18.5982 59.6579C18.1813 59.5084 17.7998 59.2802 17.4759 58.9869C17.1521 58.6936 16.8924 58.341 16.7123 57.9499L0.30048 22.1525C0.106294 21.7628 -0.00408614 21.3395 -0.0240478 20.9078C-0.0440095 20.4762 0.0268582 20.0451 0.18431 19.6404C0.341762 19.2357 0.582557 18.8657 0.892271 18.5526C1.20198 18.2395 1.57424 17.9898 1.98674 17.8183Z" fill="#A1D1F5"/>
<path d="M39.3015 42.6999C45.1116 42.6999 49.5026 38.446 49.5026 30.9976C49.5026 23.5491 45.1617 19.231 39.3015 19.231C37.928 19.2385 36.5752 19.5527 35.3496 20.1488C34.124 20.745 33.0592 21.6068 32.2393 22.6662V11.2849H26.1287V42.1862H32.2393V39.2807C33.0636 40.3345 34.1297 41.1912 35.3546 41.7843C36.5795 42.3773 37.9302 42.6906 39.3015 42.6999ZM37.3815 37.4828C36.3843 37.4612 35.4048 37.225 34.5149 36.7916C33.6251 36.3583 32.8475 35.7388 32.2393 34.9786V27.0647C32.8441 26.2986 33.6202 25.673 34.5103 25.234C35.4003 24.795 36.3816 24.5538 37.3815 24.5284C40.921 24.5284 43.2584 27.1128 43.2584 30.9494C43.2584 34.786 40.921 37.4828 37.3815 37.4828ZM64.896 42.6999C68.3484 42.8077 71.724 41.7068 74.3958 39.6018L71.7245 35.7652C70.0208 37.1653 67.8708 37.9639 65.6306 38.0286C64.0382 38.153 62.4569 37.6842 61.2139 36.7191C59.9709 35.754 59.1612 34.3666 58.9523 32.8436H76.0654V31.5594C76.0654 24.2394 71.3906 19.231 64.512 19.231C62.9186 19.2127 61.3378 19.5053 59.8654 20.0911C58.3929 20.6768 57.0592 21.5435 55.945 22.6389C54.8307 23.7342 53.959 25.0354 53.3826 26.4638C52.8062 27.8922 52.537 29.4181 52.5913 30.9494C52.5142 32.519 52.7803 34.0868 53.3726 35.5513C53.9648 37.0159 54.8699 38.3448 56.0295 39.4521C57.189 40.5595 58.5773 41.4206 60.1045 41.9801C61.6317 42.5395 63.264 42.7847 64.896 42.6999ZM70.1885 28.8626H58.8521C58.9547 27.4973 59.5996 26.2223 60.6533 25.3018C61.707 24.3813 63.0887 23.8859 64.512 23.9184C65.2241 23.8772 65.9375 23.9732 66.6105 24.2007C67.2836 24.4282 67.9026 24.7826 68.4313 25.2431C68.96 25.7036 69.3877 26.2609 69.6895 26.8824C69.9912 27.504 70.1609 28.1772 70.1885 28.8626ZM82.6434 51.2239C86.6003 51.1276 89.6556 50.0199 91.3586 45.8141L102.194 19.7928H95.6827L89.6723 35.3478L83.6619 19.7928H77.1506L86.5001 42.4752L85.6654 44.3694C85.3761 44.9284 84.91 45.3848 84.3341 45.6733C83.7582 45.9617 83.102 46.0672 82.4598 45.9747C81.8064 45.9721 81.1598 45.8467 80.5565 45.6055L79.6549 50.8868C80.639 51.0826 81.639 51.1954 82.6434 51.2239ZM115.584 42.6999C117.209 42.7732 118.832 42.5193 120.349 41.9547C121.867 41.3901 123.245 40.5271 124.395 39.4211C125.545 38.315 126.443 36.9901 127.03 35.5313C127.617 34.0725 127.881 32.5119 127.805 30.9494C127.805 27.8415 126.521 24.8609 124.235 22.6632C121.95 20.4656 118.85 19.231 115.617 19.231C112.385 19.231 109.285 20.4656 106.999 22.6632C104.714 24.8609 103.43 27.8415 103.43 30.9494C103.354 32.5063 103.616 34.0613 104.199 35.5155C104.783 36.9697 105.674 38.2913 106.817 39.3964C107.96 40.5015 109.33 41.3659 110.839 41.9346C112.349 42.5033 113.964 42.764 115.584 42.6999ZM115.584 37.4828C111.827 37.4828 109.724 34.4649 109.724 30.9494C109.724 27.4339 111.827 24.5284 115.584 24.5284C119.34 24.5284 121.511 27.5462 121.511 30.9494C121.511 34.3526 119.357 37.4828 115.584 37.4828ZM138.34 42.1862V27.1128C138.942 26.3171 139.73 25.6686 140.641 25.2196C141.552 24.7707 142.559 24.5339 143.583 24.5284C146.154 24.5284 147.823 25.6039 147.823 28.702V42.1862H153.884V26.3744C153.884 22.0241 151.446 19.231 146.404 19.231C144.877 19.212 143.365 19.5139 141.972 20.1156C140.579 20.7173 139.339 21.6042 138.34 22.7144V19.7928H132.28V42.1862H138.34ZM162.899 17.417C163.377 17.4149 163.85 17.3223 164.291 17.1445C164.732 16.9667 165.132 16.7072 165.468 16.3807C165.805 16.0543 166.071 15.6673 166.252 15.2419C166.433 14.8165 166.525 14.3611 166.522 13.9015C166.522 12.9777 166.141 12.0916 165.461 11.4384C164.782 10.7851 163.86 10.4181 162.899 10.4181C161.939 10.4181 161.017 10.7851 160.338 11.4384C159.658 12.0916 159.276 12.9777 159.276 13.9015C159.289 14.8215 159.675 15.7003 160.352 16.3509C161.029 17.0015 161.943 17.3725 162.899 17.3849V17.417ZM165.955 42.1862V19.7928H159.894V42.1862H165.955ZM182.65 42.732C184.4 42.8298 186.148 42.5102 187.739 41.8016C189.329 41.0931 190.713 40.0175 191.766 38.6707L187.793 35.107C187.253 35.8628 186.526 36.4783 185.678 36.8984C184.831 37.3186 183.888 37.5304 182.934 37.5149C182.065 37.5166 181.204 37.3432 180.409 37.0058C179.613 36.6684 178.9 36.1746 178.315 35.5561C177.73 34.9376 177.286 34.2082 177.012 33.4148C176.738 32.6214 176.64 31.7815 176.723 30.9494C176.656 30.125 176.768 29.2961 177.052 28.5156C177.337 27.7352 177.787 27.0201 178.374 26.4161C178.962 25.812 179.673 25.3322 180.464 25.0072C181.255 24.6822 182.108 24.5191 182.968 24.5284C183.925 24.4918 184.876 24.6945 185.727 25.1165C186.578 25.5385 187.302 26.1655 187.826 26.9362L191.8 23.3244C190.738 21.9877 189.352 20.9215 187.763 20.2191C186.174 19.5167 184.43 19.1994 182.684 19.2952C181.069 19.2252 179.456 19.4782 177.948 20.038C176.44 20.5979 175.069 21.4525 173.922 22.5478C172.775 23.6431 171.877 24.9553 171.284 26.4014C170.692 27.8476 170.418 29.3962 170.479 30.9494C170.403 32.5105 170.667 34.0697 171.253 35.5274C171.839 36.985 172.735 38.309 173.884 39.4149C175.032 40.5207 176.408 41.384 177.924 41.9497C179.439 42.5153 181.06 42.7709 182.684 42.6999L182.65 42.732Z" fill="#002D45"/>
<path d="M39.3015 42.6999C45.1116 42.6999 49.5026 38.446 49.5026 30.9976C49.5026 23.5491 45.1617 19.231 39.3015 19.231C37.928 19.2385 36.5752 19.5527 35.3496 20.1488C34.124 20.745 33.0592 21.6068 32.2393 22.6662V11.2849H26.1287V42.1862H32.2393V39.2807C33.0636 40.3345 34.1297 41.1912 35.3546 41.7843C36.5795 42.3773 37.9302 42.6906 39.3015 42.6999ZM37.3815 37.4828C36.3843 37.4612 35.4048 37.225 34.5149 36.7916C33.6251 36.3583 32.8475 35.7388 32.2393 34.9786V27.0647C32.8441 26.2986 33.6202 25.673 34.5103 25.234C35.4003 24.795 36.3816 24.5538 37.3815 24.5284C40.921 24.5284 43.2584 27.1128 43.2584 30.9494C43.2584 34.786 40.921 37.4828 37.3815 37.4828ZM64.896 42.6999C68.3484 42.8077 71.724 41.7068 74.3958 39.6018L71.7245 35.7652C70.0208 37.1653 67.8708 37.9639 65.6306 38.0286C64.0382 38.153 62.4569 37.6842 61.2139 36.7191C59.9709 35.754 59.1612 34.3666 58.9523 32.8436H76.0654V31.5594C76.0654 24.2394 71.3906 19.231 64.512 19.231C62.9186 19.2127 61.3378 19.5053 59.8654 20.0911C58.3929 20.6768 57.0592 21.5435 55.945 22.6389C54.8307 23.7342 53.959 25.0354 53.3826 26.4638C52.8062 27.8922 52.537 29.4181 52.5913 30.9494C52.5142 32.519 52.7803 34.0868 53.3726 35.5513C53.9648 37.0159 54.8699 38.3448 56.0295 39.4521C57.189 40.5595 58.5773 41.4206 60.1045 41.9801C61.6317 42.5395 63.264 42.7847 64.896 42.6999ZM70.1885 28.8626H58.8521C58.9547 27.4973 59.5996 26.2223 60.6533 25.3018C61.707 24.3813 63.0887 23.8859 64.512 23.9184C65.2241 23.8772 65.9375 23.9732 66.6105 24.2007C67.2836 24.4282 67.9026 24.7826 68.4313 25.2431C68.96 25.7036 69.3877 26.2609 69.6895 26.8824C69.9912 27.504 70.1609 28.1772 70.1885 28.8626ZM82.6434 51.2239C86.6003 51.1276 89.6556 50.0199 91.3586 45.8141L102.194 19.7928H95.6827L89.6723 35.3478L83.6619 19.7928H77.1506L86.5001 42.4752L85.6654 44.3694C85.3761 44.9284 84.91 45.3848 84.3341 45.6733C83.7582 45.9617 83.102 46.0672 82.4598 45.9747C81.8064 45.9721 81.1598 45.8467 80.5565 45.6055L79.6549 50.8868C80.639 51.0826 81.639 51.1954 82.6434 51.2239ZM115.584 42.6999C117.209 42.7732 118.832 42.5193 120.349 41.9547C121.867 41.3901 123.245 40.5271 124.395 39.4211C125.545 38.315 126.443 36.9901 127.03 35.5313C127.617 34.0725 127.881 32.5119 127.805 30.9494C127.805 27.8415 126.521 24.8609 124.235 22.6632C121.95 20.4656 118.85 19.231 115.617 19.231C112.385 19.231 109.285 20.4656 106.999 22.6632C104.714 24.8609 103.43 27.8415 103.43 30.9494C103.354 32.5063 103.616 34.0613 104.199 35.5155C104.783 36.9697 105.674 38.2913 106.817 39.3964C107.96 40.5015 109.33 41.3659 110.839 41.9346C112.349 42.5033 113.964 42.764 115.584 42.6999ZM115.584 37.4828C111.827 37.4828 109.724 34.4649 109.724 30.9494C109.724 27.4339 111.827 24.5284 115.584 24.5284C119.34 24.5284 121.511 27.5462 121.511 30.9494C121.511 34.3526 119.357 37.4828 115.584 37.4828ZM138.34 42.1862V27.1128C138.942 26.3171 139.73 25.6686 140.641 25.2196C141.552 24.7707 142.559 24.5339 143.583 24.5284C146.154 24.5284 147.823 25.6039 147.823 28.702V42.1862H153.884V26.3744C153.884 22.0241 151.446 19.231 146.404 19.231C144.877 19.212 143.365 19.5139 141.972 20.1156C140.579 20.7173 139.339 21.6042 138.34 22.7144V19.7928H132.28V42.1862H138.34ZM162.899 17.417C163.377 17.4149 163.85 17.3223 164.291 17.1445C164.732 16.9667 165.132 16.7072 165.468 16.3807C165.805 16.0543 166.071 15.6673 166.252 15.2419C166.433 14.8165 166.525 14.3611 166.522 13.9015C166.522 12.9777 166.141 12.0916 165.461 11.4384C164.782 10.7851 163.86 10.4181 162.899 10.4181C161.939 10.4181 161.017 10.7851 160.338 11.4384C159.658 12.0916 159.276 12.9777 159.276 13.9015C159.289 14.8215 159.675 15.7003 160.352 16.3509C161.029 17.0015 161.943 17.3725 162.899 17.3849V17.417ZM165.955 42.1862V19.7928H159.894V42.1862H165.955ZM182.65 42.732C184.4 42.8298 186.148 42.5102 187.739 41.8016C189.329 41.0931 190.713 40.0175 191.766 38.6707L187.793 35.107C187.253 35.8628 186.526 36.4783 185.678 36.8984C184.831 37.3186 183.888 37.5304 182.934 37.5149C182.065 37.5166 181.204 37.3432 180.409 37.0058C179.613 36.6684 178.9 36.1746 178.315 35.5561C177.73 34.9376 177.286 34.2082 177.012 33.4148C176.738 32.6214 176.64 31.7815 176.723 30.9494C176.656 30.125 176.768 29.2961 177.052 28.5156C177.337 27.7352 177.787 27.0201 178.374 26.4161C178.962 25.812 179.673 25.3322 180.464 25.0072C181.255 24.6822 182.108 24.5191 182.968 24.5284C183.925 24.4918 184.876 24.6945 185.727 25.1165C186.578 25.5385 187.302 26.1655 187.826 26.9362L191.8 23.3244C190.738 21.9877 189.352 20.9215 187.763 20.2191C186.174 19.5167 184.43 19.1994 182.684 19.2952C181.069 19.2252 179.456 19.4782 177.948 20.038C176.44 20.5979 175.069 21.4525 173.922 22.5478C172.775 23.6431 171.877 24.9553 171.284 26.4014C170.692 27.8476 170.418 29.3962 170.479 30.9494C170.403 32.5105 170.667 34.0697 171.253 35.5274C171.839 36.985 172.735 38.309 173.884 39.4149C175.032 40.5207 176.408 41.384 177.924 41.9497C179.439 42.5153 181.06 42.7709 182.684 42.6999L182.65 42.732Z" fill="#002D45"/>
</g>
<defs>
<clipPath id="clip0_1_1519">
<rect width="191.8" height="58.2229" fill="white" transform="translate(0 1.60522)"/>
</clipPath>
</defs>
</svg>
