<svg width="20" height="20" viewBox="0 0 20 20" fill="none" xmlns="http://www.w3.org/2000/svg">
<path d="M13.9813 14.1469C12.613 15.1006 10.9567 15.5512 9.2938 15.4219C6.40687 15.0917 3.93555 13.2004 2.86255 10.5C3.5902 8.85348 4.82974 7.48571 6.39692 6.60001" stroke="white" stroke-width="1.4" stroke-linecap="round"/>
<path d="M9.3313 5.7375C12.6492 5.64427 15.6609 7.6659 16.8313 10.7719C16.5311 11.4532 16.1297 12.0854 15.6407 12.6469" stroke="white" stroke-width="1.4" stroke-linecap="round"/>
<path d="M11.6376 11.5875C11.2667 12.0906 10.6782 12.3866 10.0532 12.3844C9.22915 12.3889 8.48864 11.8821 8.19451 11.1124C7.90038 10.3426 8.11424 9.47114 8.7313 8.925" stroke="white" stroke-width="1.4" stroke-linecap="round"/>
<path d="M3.3313 3.1875L16.0157 15.8719" stroke="white" stroke-width="1.4" stroke-linecap="round"/>
</svg>
