<svg width="34" height="34" viewBox="0 0 34 34" fill="none" xmlns="http://www.w3.org/2000/svg">
<path d="M16.9999 29.3929C23.8444 29.3929 29.3929 23.8444 29.3929 16.9999C29.3929 10.1555 23.8444 4.60693 16.9999 4.60693C10.1555 4.60693 4.60693 10.1555 4.60693 16.9999C4.60693 23.8444 10.1555 29.3929 16.9999 29.3929Z" stroke="#2F2F2E" stroke-width="2" stroke-linecap="round" stroke-linejoin="round"/>
<path d="M13.7019 12.4439C14.3251 10.691 16.1193 9.64068 17.9529 9.95538C19.7866 10.2701 21.1278 11.8585 21.1309 13.7189C21.1309 16.2689 17.3059 17.5439 17.3059 17.5439" stroke="#2F2F2E" stroke-width="2" stroke-linecap="round" stroke-linejoin="round"/>
<path d="M16.779 25.6192C17.7179 25.6192 18.479 24.8581 18.479 23.9192C18.479 22.9804 17.7179 22.2192 16.779 22.2192C15.8401 22.2192 15.079 22.9804 15.079 23.9192C15.079 24.8581 15.8401 25.6192 16.779 25.6192Z" fill="#2F2F2E"/>
<path d="M16.7789 17.5442V19.4482" stroke="#2F2F2E" stroke-width="2" stroke-linecap="round" stroke-linejoin="round"/>
</svg>
