<svg width="69" height="73" viewBox="0 0 69 73" fill="none" xmlns="http://www.w3.org/2000/svg">
<path d="M49.4999 67.7154C57.3509 67.7154 63.7154 61.3509 63.7154 53.4999C63.7154 45.6489 57.3509 39.2844 49.4999 39.2844C41.6489 39.2844 35.2844 45.6489 35.2844 53.4999C35.2844 61.3509 41.6489 67.7154 49.4999 67.7154Z" stroke="#0082CA" stroke-width="2" stroke-linecap="round" stroke-linejoin="round"/>
<path d="M45.7169 48.2739C46.4318 46.2632 48.4898 45.0584 50.5931 45.4194C52.6964 45.7804 54.2349 47.6024 54.2384 49.7364C54.2384 52.6614 49.8509 54.1239 49.8509 54.1239" stroke="#0082CA" stroke-width="2" stroke-linecap="round" stroke-linejoin="round"/>
<path d="M50.6964 61.4366C50.6964 62.2374 50.0472 62.8866 49.2464 62.8866C48.4456 62.8866 47.7964 62.2374 47.7964 61.4366C47.7964 60.6358 48.4456 59.9866 49.2464 59.9866C50.0472 59.9866 50.6964 60.6358 50.6964 61.4366Z" fill="#0082CA" stroke="#0082CA"/>
<path d="M49.2465 54.1241V56.3081" stroke="#0082CA" stroke-width="2" stroke-linecap="round" stroke-linejoin="round"/>
<path fill-rule="evenodd" clip-rule="evenodd" d="M25.7286 5.85008C26.3743 5.85008 26.8978 6.37362 26.8978 7.01935C26.8978 7.66508 26.3743 8.18862 25.7286 8.18862C25.0828 8.18862 24.5593 7.66508 24.5593 7.01935C24.5593 6.37362 25.0828 5.85008 25.7286 5.85008ZM25.7286 10.5281C27.6666 10.5281 29.2373 8.95743 29.2373 7.01935C29.2373 5.08216 27.6666 3.51065 25.7286 3.51065C23.7905 3.51065 22.2198 5.08216 22.2198 7.01935C22.2198 8.95743 23.7905 10.5281 25.7286 10.5281Z" fill="#25262A"/>
<path fill-rule="evenodd" clip-rule="evenodd" d="M15.2032 9.35852C15.2032 8.06706 16.2503 7.01998 17.5417 7.01998H20.955L21.1441 6.08438C21.6587 3.5523 24.1275 1.91657 26.6595 2.4303C28.5004 2.804 29.939 4.24262 30.3127 6.08438L30.5027 7.01998H33.9151C35.2065 7.01998 36.2545 8.06706 36.2545 9.35852V12.8672H15.2032V9.35852ZM34.617 67.8336H5.84724C3.90916 67.8336 2.33854 66.2621 2.33854 64.3249V15.2058C2.33854 13.2686 3.90916 11.6971 5.84724 11.6971H12.8646V12.8672C12.8646 14.1587 13.9117 15.2058 15.2032 15.2058H36.2545C37.546 15.2058 38.5931 14.1587 38.5931 12.8672V11.6971H45.6105C47.5476 11.6971 49.1183 13.2686 49.1183 15.2058V33.9177C49.1183 34.5634 49.6418 35.0878 50.2884 35.0878C50.9342 35.0878 51.4577 34.5634 51.4577 33.9177V15.2058C51.4532 11.978 48.8382 9.36208 45.6105 9.35852H38.5931C38.5931 6.77471 36.4989 4.68054 33.9151 4.68054H32.3445C31.053 1.02646 27.0439 -0.88843 23.3899 0.40303C21.3911 1.10941 19.8196 2.68181 19.1132 4.68054H17.5417C14.9588 4.68054 12.8646 6.77471 12.8646 9.35852H5.84724C2.61949 9.36208 0.00356757 11.978 0 15.2058V64.3249C0.00356757 67.5527 2.61949 70.1686 5.84724 70.1722H34.617C35.2627 70.1722 35.7863 69.6486 35.7863 69.0029C35.7863 68.3572 35.2627 67.8336 34.617 67.8336Z" fill="#25262A"/>
<path fill-rule="evenodd" clip-rule="evenodd" d="M40.9321 26.901C40.9321 26.2552 40.4085 25.7317 39.7628 25.7317H16.3729C15.7272 25.7317 15.2028 26.2552 15.2028 26.901C15.2028 27.5467 15.7272 28.0702 16.3729 28.0702H39.7628C40.4085 28.0702 40.9321 27.5467 40.9321 26.901Z" fill="#25262A"/>
<path fill-rule="evenodd" clip-rule="evenodd" d="M28.0675 39.7654H16.3722C15.7264 39.7654 15.2029 40.289 15.2029 40.9347C15.2029 41.5804 15.7264 42.104 16.3722 42.104H28.0675C28.7133 42.104 29.2368 41.5804 29.2368 40.9347C29.2368 40.289 28.7133 39.7654 28.0675 39.7654Z" fill="#25262A"/>
<path fill-rule="evenodd" clip-rule="evenodd" d="M28.0675 53.7993H16.3722C15.7264 53.7993 15.2029 54.3229 15.2029 54.9686C15.2029 55.6144 15.7264 56.1379 16.3722 56.1379H28.0675C28.7133 56.1379 29.2368 55.6144 29.2368 54.9686C29.2368 54.3229 28.7133 53.7993 28.0675 53.7993Z" fill="#25262A"/>
<path fill-rule="evenodd" clip-rule="evenodd" d="M9.35563 24.562C10.6471 24.562 11.6942 25.6091 11.6942 26.9014C11.6942 28.1929 10.6471 29.24 9.35563 29.24C8.06417 29.24 7.01709 28.1929 7.01709 26.9014C7.01709 25.6091 8.06417 24.562 9.35563 24.562Z" fill="#25262A"/>
<path fill-rule="evenodd" clip-rule="evenodd" d="M9.35563 38.5959C10.6471 38.5959 11.6942 39.643 11.6942 40.9344C11.6942 42.2268 10.6471 43.2739 9.35563 43.2739C8.06417 43.2739 7.01709 42.2268 7.01709 40.9344C7.01709 39.643 8.06417 38.5959 9.35563 38.5959Z" fill="#25262A"/>
<path fill-rule="evenodd" clip-rule="evenodd" d="M9.35563 52.6298C10.6471 52.6298 11.6942 53.6769 11.6942 54.9683C11.6942 56.2607 10.6471 57.3078 9.35563 57.3078C8.06417 57.3078 7.01709 56.2607 7.01709 54.9683C7.01709 53.6769 8.06417 52.6298 9.35563 52.6298Z" fill="#25262A"/>
</svg>
