<svg width="34" height="34" viewBox="0 0 34 34" fill="none" xmlns="http://www.w3.org/2000/svg">
<path d="M17 3.22986C18.8778 3.22986 20.4 4.75209 20.4 6.62986V6.79986C20.4057 7.08396 20.5792 7.33766 20.842 7.44586C21.0996 7.57035 21.4081 7.51552 21.607 7.30986C22.2667 6.66728 23.1511 6.30744 24.072 6.30686C24.9899 6.297 25.8729 6.65876 26.52 7.30986C27.1673 7.96785 27.5331 8.8519 27.54 9.77486C27.5454 10.6953 27.1773 11.5786 26.52 12.2229C26.3103 12.4258 26.2493 12.7379 26.367 13.0049C26.3766 13.0782 26.3766 13.1525 26.367 13.2259C26.4914 13.4148 26.7017 13.5296 26.928 13.5319H27.132C29.0473 13.5319 30.6 15.0845 30.6 16.9999C30.6 18.9152 29.0473 20.4679 27.132 20.4679H27.2C26.9212 20.4747 26.6706 20.6396 26.554 20.8929C26.4267 21.1557 26.4815 21.4704 26.69 21.6749C27.3326 22.3346 27.6924 23.2189 27.693 24.1399C27.7029 25.0578 27.3411 25.9407 26.69 26.5879C26.032 27.2351 25.148 27.6009 24.225 27.6079C23.3046 27.6132 22.4213 27.2452 21.777 26.5879C21.5753 26.3743 21.257 26.3189 20.995 26.4519C20.7349 26.554 20.5609 26.8015 20.553 27.0809V27.2849C20.553 29.2002 19.0003 30.7529 17.085 30.7529C15.1697 30.7529 13.617 29.2002 13.617 27.2849C13.6055 26.9723 13.3919 26.7036 13.09 26.6219C12.8324 26.4974 12.5239 26.5522 12.325 26.7579C11.6653 27.4004 10.7809 27.7603 9.86 27.7609C8.94206 27.7707 8.05913 27.409 7.412 26.7579C6.76473 26.0999 6.39892 25.2158 6.392 24.2929C6.38662 23.3724 6.75466 22.4892 7.412 21.8449C7.6256 21.6431 7.68094 21.3249 7.548 21.0629C7.44589 20.8028 7.19831 20.6288 6.919 20.6209H6.698C4.7592 20.6209 3.1875 19.0492 3.1875 17.1104C3.1875 15.1716 4.7592 13.5999 6.698 13.5999H6.8C7.11258 13.5884 7.38129 13.3748 7.463 13.0729C7.58749 12.8152 7.53266 12.5068 7.327 12.3079C6.68443 11.6482 6.32458 10.7638 6.324 9.84286C6.31415 8.92491 6.6759 8.04199 7.327 7.39486C7.98499 6.74759 8.86904 6.38178 9.792 6.37486C10.7124 6.36948 11.5957 6.73752 12.24 7.39486C12.4429 7.60452 12.755 7.66558 13.022 7.54786L13.243 7.46286C13.4516 7.35076 13.5868 7.13826 13.6 6.90186V6.69786C13.5817 5.7844 13.9319 4.90202 14.5715 4.24962C15.2111 3.59721 16.0864 3.22986 17 3.22986ZM17 5.59286C16.3897 5.59286 15.895 6.08758 15.895 6.69786V6.90186C15.8893 8.12688 15.1536 9.23047 14.025 9.70686H13.719C12.6149 10.0884 11.39 9.81177 10.557 8.99286C10.3485 8.78727 10.0678 8.67135 9.775 8.66986C9.48143 8.66761 9.19941 8.7841 8.993 8.99286C8.77631 9.19523 8.6532 9.47837 8.653 9.77486C8.64896 10.0722 8.77278 10.357 8.993 10.5569C9.89458 11.4455 10.1518 12.7995 9.639 13.9569C9.20276 15.1539 8.07389 15.9583 6.8 15.9799H6.698C6.08773 15.9799 5.593 16.4746 5.593 17.0849C5.593 17.6979 6.08499 18.1976 6.698 18.2069H6.902C8.11889 18.2067 9.22024 18.9276 9.707 20.0429C10.2044 21.1991 9.95617 22.5411 9.078 23.4429C8.87241 23.6514 8.75649 23.932 8.755 24.2249C8.75275 24.5184 8.86924 24.8004 9.078 25.0069C9.28037 25.2236 9.56351 25.3467 9.86 25.3469C10.1574 25.3509 10.4421 25.2271 10.642 25.0069C11.5306 24.1053 12.8846 23.848 14.042 24.3609C15.2056 24.8245 15.9721 25.9473 15.98 27.1999V27.3019C15.98 27.9121 16.4747 28.4069 17.085 28.4069C17.6981 28.4069 18.1977 27.9149 18.207 27.3019V27.0979C18.2068 25.881 18.9277 24.7796 20.043 24.2929C21.1992 23.7954 22.5413 24.0437 23.443 24.9219C23.6515 25.1274 23.9322 25.2434 24.225 25.2449C24.5186 25.2471 24.8006 25.1306 25.007 24.9219C25.2237 24.7195 25.3468 24.4364 25.347 24.1399C25.351 23.8425 25.2272 23.5577 25.007 23.3579C24.1418 22.4698 23.8903 21.151 24.3679 20.0068C24.8456 18.8626 25.9602 18.1141 27.2 18.1049H27.302C27.9123 18.1049 28.407 17.6101 28.407 16.9999C28.407 16.3896 27.9123 15.8949 27.302 15.8949H27.098C25.873 15.8892 24.7694 15.1535 24.293 14.0249C24.2838 13.9231 24.2838 13.8207 24.293 13.7189C23.9115 12.6148 24.1881 11.3899 25.007 10.5569C25.2126 10.3483 25.3285 10.0677 25.33 9.77486C25.3322 9.48129 25.2158 9.19927 25.007 8.99286C24.8046 8.77617 24.5215 8.65306 24.225 8.65286C23.9276 8.64882 23.6429 8.77264 23.443 8.99286C22.5481 9.88411 21.1975 10.134 20.043 9.62186C18.891 9.15314 18.1288 8.04334 18.105 6.79986V6.69786C18.105 6.08758 17.6103 5.59286 17 5.59286Z" fill="#2F2F2E"/>
<path d="M16.9999 21.2161C19.3284 21.2161 21.2159 19.3285 21.2159 17.0001C21.2159 14.6716 19.3284 12.7841 16.9999 12.7841C14.6715 12.7841 12.7839 14.6716 12.7839 17.0001C12.7839 19.3285 14.6715 21.2161 16.9999 21.2161Z" stroke="#2F2F2E" stroke-width="1.37" stroke-linecap="round" stroke-linejoin="round"/>
</svg>
