<svg width="34" height="34" viewBox="0 0 34 34" fill="none" xmlns="http://www.w3.org/2000/svg">
<path d="M17.493 29.886C24.3374 29.886 29.886 24.3374 29.886 17.493C29.886 10.6485 24.3374 5.09998 17.493 5.09998C10.6485 5.09998 5.09998 10.6485 5.09998 17.493C5.09998 24.3374 10.6485 29.886 17.493 29.886Z" stroke="#2F2F2E" stroke-width="2.5" stroke-linecap="round" stroke-linejoin="round"/>
<path d="M17.493 17.153C19.3332 17.153 20.825 15.6612 20.825 13.821C20.825 11.9808 19.3332 10.489 17.493 10.489C15.6528 10.489 14.161 11.9808 14.161 13.821C14.161 15.6612 15.6528 17.153 17.493 17.153Z" stroke="#2F2F2E" stroke-width="2.5" stroke-linecap="round" stroke-linejoin="round"/>
<path d="M10.5909 27.302V24.548C10.7353 22.8129 12.2552 21.521 13.9909 21.658H20.9609C22.6936 21.5305 24.2077 22.8175 24.3609 24.548V27.302" stroke="#2F2F2E" stroke-width="2.5" stroke-linecap="round" stroke-linejoin="round"/>
</svg>
